<mxfile host="app.diagrams.net" agent="Mozilla/5.0 (Windows NT 10.0; Win64; x64) AppleWebKit/537.36 (KHTML, like Gecko) Chrome/140.0.0.0 Safari/537.36 Edg/140.0.0.0" version="28.2.5">
  <diagram name="Страница — 1" id="10DUMcAuKhEKXdEQsbdQ">
    <mxGraphModel dx="1657" dy="798" grid="1" gridSize="10" guides="1" tooltips="1" connect="1" arrows="1" fold="1" page="1" pageScale="1" pageWidth="827" pageHeight="1169" math="0" shadow="0">
      <root>
        <mxCell id="0" />
        <mxCell id="1" parent="0" />
        <mxCell id="jVt4ej8px2lFmIXzNVkL-4" style="edgeStyle=orthogonalEdgeStyle;rounded=0;orthogonalLoop=1;jettySize=auto;html=1;exitX=0;exitY=0.5;exitDx=0;exitDy=0;entryX=0.5;entryY=0;entryDx=0;entryDy=0;" edge="1" parent="1" source="jVt4ej8px2lFmIXzNVkL-1" target="jVt4ej8px2lFmIXzNVkL-2">
          <mxGeometry relative="1" as="geometry" />
        </mxCell>
        <mxCell id="jVt4ej8px2lFmIXzNVkL-1" value="БД" style="ellipse;whiteSpace=wrap;html=1;" vertex="1" parent="1">
          <mxGeometry x="330" y="60" width="120" height="80" as="geometry" />
        </mxCell>
        <mxCell id="jVt4ej8px2lFmIXzNVkL-6" style="edgeStyle=orthogonalEdgeStyle;rounded=0;orthogonalLoop=1;jettySize=auto;html=1;exitX=0.5;exitY=1;exitDx=0;exitDy=0;entryX=0.5;entryY=0;entryDx=0;entryDy=0;" edge="1" parent="1" source="jVt4ej8px2lFmIXzNVkL-2" target="jVt4ej8px2lFmIXzNVkL-3">
          <mxGeometry relative="1" as="geometry" />
        </mxCell>
        <mxCell id="jVt4ej8px2lFmIXzNVkL-2" value="Сбор данных" style="rounded=0;whiteSpace=wrap;html=1;" vertex="1" parent="1">
          <mxGeometry x="190" y="150" width="120" height="60" as="geometry" />
        </mxCell>
        <mxCell id="jVt4ej8px2lFmIXzNVkL-12" style="edgeStyle=orthogonalEdgeStyle;rounded=0;orthogonalLoop=1;jettySize=auto;html=1;exitX=0.5;exitY=1;exitDx=0;exitDy=0;entryX=0.5;entryY=0;entryDx=0;entryDy=0;" edge="1" parent="1" source="jVt4ej8px2lFmIXzNVkL-3" target="jVt4ej8px2lFmIXzNVkL-9">
          <mxGeometry relative="1" as="geometry" />
        </mxCell>
        <mxCell id="jVt4ej8px2lFmIXzNVkL-3" value="Учёт ограничении" style="rounded=0;whiteSpace=wrap;html=1;" vertex="1" parent="1">
          <mxGeometry x="190" y="270" width="120" height="60" as="geometry" />
        </mxCell>
        <mxCell id="jVt4ej8px2lFmIXzNVkL-13" style="edgeStyle=orthogonalEdgeStyle;rounded=0;orthogonalLoop=1;jettySize=auto;html=1;exitX=0.5;exitY=1;exitDx=0;exitDy=0;entryX=1;entryY=0.5;entryDx=0;entryDy=0;" edge="1" parent="1" source="jVt4ej8px2lFmIXzNVkL-9" target="jVt4ej8px2lFmIXzNVkL-1">
          <mxGeometry relative="1" as="geometry" />
        </mxCell>
        <mxCell id="jVt4ej8px2lFmIXzNVkL-9" value="Сборка и сравнение цен" style="rounded=0;whiteSpace=wrap;html=1;" vertex="1" parent="1">
          <mxGeometry x="190" y="370" width="120" height="60" as="geometry" />
        </mxCell>
        <mxCell id="jVt4ej8px2lFmIXzNVkL-14" value="" style="html=1;verticalAlign=bottom;startArrow=oval;startFill=1;endArrow=block;startSize=8;curved=0;rounded=0;" edge="1" parent="1">
          <mxGeometry width="60" relative="1" as="geometry">
            <mxPoint x="240" y="260" as="sourcePoint" />
            <mxPoint x="240" y="220" as="targetPoint" />
          </mxGeometry>
        </mxCell>
        <mxCell id="jVt4ej8px2lFmIXzNVkL-18" value="получение&lt;div&gt;инфо&lt;/div&gt;&lt;div&gt;&amp;nbsp;о ограничении&lt;/div&gt;" style="edgeLabel;html=1;align=center;verticalAlign=middle;resizable=0;points=[];" vertex="1" connectable="0" parent="jVt4ej8px2lFmIXzNVkL-14">
          <mxGeometry x="-0.2" y="2" relative="1" as="geometry">
            <mxPoint x="-48" y="-4" as="offset" />
          </mxGeometry>
        </mxCell>
        <mxCell id="jVt4ej8px2lFmIXzNVkL-16" value="Сбор&amp;nbsp;&lt;div&gt;информации&amp;nbsp;&lt;/div&gt;&lt;div&gt;в единое&amp;nbsp;&lt;div&gt;целое&lt;/div&gt;&lt;/div&gt;" style="html=1;verticalAlign=bottom;startArrow=oval;startFill=1;endArrow=block;startSize=8;curved=0;rounded=0;" edge="1" parent="1">
          <mxGeometry x="1" y="-51" width="60" relative="1" as="geometry">
            <mxPoint x="230" y="340" as="sourcePoint" />
            <mxPoint x="230" y="360" as="targetPoint" />
            <mxPoint x="1" y="10" as="offset" />
          </mxGeometry>
        </mxCell>
        <mxCell id="jVt4ej8px2lFmIXzNVkL-17" value="Ввод&lt;div&gt;&lt;span style=&quot;background-color: light-dark(#ffffff, var(--ge-dark-color, #121212)); color: light-dark(rgb(0, 0, 0), rgb(255, 255, 255));&quot;&gt;&amp;nbsp;исходных&lt;/span&gt;&lt;/div&gt;&lt;div&gt;&lt;div&gt;&amp;nbsp;данный&lt;/div&gt;&lt;/div&gt;" style="html=1;verticalAlign=bottom;startArrow=oval;startFill=1;endArrow=block;startSize=8;curved=0;rounded=0;" edge="1" parent="1">
          <mxGeometry x="-1" y="-10" width="60" relative="1" as="geometry">
            <mxPoint x="240" y="98" as="sourcePoint" />
            <mxPoint x="240" y="140" as="targetPoint" />
            <mxPoint as="offset" />
          </mxGeometry>
        </mxCell>
      </root>
    </mxGraphModel>
  </diagram>
</mxfile>
